<mxfile host="app.diagrams.net" agent="Mozilla/5.0 (Windows NT 10.0; Win64; x64) AppleWebKit/537.36 (KHTML, like Gecko) Chrome/131.0.0.0 Safari/537.36" version="25.0.3">
  <diagram id="C5RBs43oDa-KdzZeNtuy" name="Page-1">
    <mxGraphModel dx="1221" dy="759" grid="1" gridSize="10" guides="1" tooltips="1" connect="1" arrows="1" fold="1" page="1" pageScale="1" pageWidth="827" pageHeight="1169" math="0" shadow="0">
      <root>
        <mxCell id="WIyWlLk6GJQsqaUBKTNV-0" />
        <mxCell id="WIyWlLk6GJQsqaUBKTNV-1" parent="WIyWlLk6GJQsqaUBKTNV-0" />
        <mxCell id="WIyWlLk6GJQsqaUBKTNV-5" value="No" style="edgeStyle=orthogonalEdgeStyle;rounded=0;html=1;jettySize=auto;orthogonalLoop=1;fontSize=11;endArrow=block;endFill=0;endSize=8;strokeWidth=1;shadow=0;labelBackgroundColor=none;" parent="WIyWlLk6GJQsqaUBKTNV-1" target="WIyWlLk6GJQsqaUBKTNV-7" edge="1">
          <mxGeometry y="10" relative="1" as="geometry">
            <mxPoint as="offset" />
            <mxPoint x="270" y="210" as="sourcePoint" />
          </mxGeometry>
        </mxCell>
        <mxCell id="WIyWlLk6GJQsqaUBKTNV-7" value="Message : Recipes not found" style="rounded=1;whiteSpace=wrap;html=1;fontSize=12;glass=0;strokeWidth=1;shadow=0;" parent="WIyWlLk6GJQsqaUBKTNV-1" vertex="1">
          <mxGeometry x="354" y="190" width="120" height="40" as="geometry" />
        </mxCell>
        <mxCell id="WIyWlLk6GJQsqaUBKTNV-9" value="" style="edgeStyle=orthogonalEdgeStyle;rounded=0;html=1;jettySize=auto;orthogonalLoop=1;fontSize=11;endArrow=block;endFill=0;endSize=8;strokeWidth=1;shadow=0;labelBackgroundColor=none;" parent="WIyWlLk6GJQsqaUBKTNV-1" target="WIyWlLk6GJQsqaUBKTNV-12" edge="1">
          <mxGeometry y="10" relative="1" as="geometry">
            <mxPoint as="offset" />
            <mxPoint x="270" y="340" as="sourcePoint" />
          </mxGeometry>
        </mxCell>
        <mxCell id="Ss6W5KTS9dLa1oaQqJZ9-41" style="edgeStyle=orthogonalEdgeStyle;rounded=0;orthogonalLoop=1;jettySize=auto;html=1;exitX=0.5;exitY=1;exitDx=0;exitDy=0;entryX=0.5;entryY=0;entryDx=0;entryDy=0;" edge="1" parent="WIyWlLk6GJQsqaUBKTNV-1" source="WIyWlLk6GJQsqaUBKTNV-12" target="Ss6W5KTS9dLa1oaQqJZ9-25">
          <mxGeometry relative="1" as="geometry" />
        </mxCell>
        <mxCell id="Ss6W5KTS9dLa1oaQqJZ9-42" style="edgeStyle=orthogonalEdgeStyle;rounded=0;orthogonalLoop=1;jettySize=auto;html=1;exitX=1;exitY=0.5;exitDx=0;exitDy=0;" edge="1" parent="WIyWlLk6GJQsqaUBKTNV-1" source="WIyWlLk6GJQsqaUBKTNV-12" target="Ss6W5KTS9dLa1oaQqJZ9-52">
          <mxGeometry relative="1" as="geometry">
            <mxPoint x="540" y="340" as="targetPoint" />
          </mxGeometry>
        </mxCell>
        <mxCell id="WIyWlLk6GJQsqaUBKTNV-12" value="Filter" style="rounded=1;whiteSpace=wrap;html=1;fontSize=12;glass=0;strokeWidth=1;shadow=0;" parent="WIyWlLk6GJQsqaUBKTNV-1" vertex="1">
          <mxGeometry x="354" y="320" width="120" height="40" as="geometry" />
        </mxCell>
        <mxCell id="Ss6W5KTS9dLa1oaQqJZ9-11" style="edgeStyle=orthogonalEdgeStyle;rounded=0;orthogonalLoop=1;jettySize=auto;html=1;exitX=0.5;exitY=1;exitDx=0;exitDy=0;" edge="1" parent="WIyWlLk6GJQsqaUBKTNV-1" source="WIyWlLk6GJQsqaUBKTNV-12" target="WIyWlLk6GJQsqaUBKTNV-12">
          <mxGeometry relative="1" as="geometry" />
        </mxCell>
        <mxCell id="Ss6W5KTS9dLa1oaQqJZ9-26" style="edgeStyle=orthogonalEdgeStyle;rounded=0;orthogonalLoop=1;jettySize=auto;html=1;exitX=0;exitY=0.5;exitDx=0;exitDy=0;entryX=0.5;entryY=1;entryDx=0;entryDy=0;" edge="1" parent="WIyWlLk6GJQsqaUBKTNV-1" source="Ss6W5KTS9dLa1oaQqJZ9-25" target="Ss6W5KTS9dLa1oaQqJZ9-46">
          <mxGeometry relative="1" as="geometry">
            <mxPoint x="220" y="380" as="targetPoint" />
            <Array as="points">
              <mxPoint x="221" y="445" />
            </Array>
          </mxGeometry>
        </mxCell>
        <mxCell id="Ss6W5KTS9dLa1oaQqJZ9-39" style="edgeStyle=orthogonalEdgeStyle;rounded=0;orthogonalLoop=1;jettySize=auto;html=1;exitX=0.5;exitY=1;exitDx=0;exitDy=0;entryX=0.5;entryY=0;entryDx=0;entryDy=0;" edge="1" parent="WIyWlLk6GJQsqaUBKTNV-1" source="Ss6W5KTS9dLa1oaQqJZ9-25" target="Ss6W5KTS9dLa1oaQqJZ9-34">
          <mxGeometry relative="1" as="geometry" />
        </mxCell>
        <mxCell id="Ss6W5KTS9dLa1oaQqJZ9-25" value="Click on element" style="rounded=1;whiteSpace=wrap;html=1;" vertex="1" parent="WIyWlLk6GJQsqaUBKTNV-1">
          <mxGeometry x="354" y="410" width="120" height="70" as="geometry" />
        </mxCell>
        <mxCell id="Ss6W5KTS9dLa1oaQqJZ9-48" style="edgeStyle=orthogonalEdgeStyle;rounded=0;orthogonalLoop=1;jettySize=auto;html=1;exitX=0.5;exitY=1;exitDx=0;exitDy=0;entryX=0.5;entryY=0;entryDx=0;entryDy=0;" edge="1" parent="WIyWlLk6GJQsqaUBKTNV-1" source="Ss6W5KTS9dLa1oaQqJZ9-29" target="Ss6W5KTS9dLa1oaQqJZ9-46">
          <mxGeometry relative="1" as="geometry" />
        </mxCell>
        <mxCell id="Ss6W5KTS9dLa1oaQqJZ9-29" value="Search bar" style="whiteSpace=wrap;html=1;aspect=fixed;" vertex="1" parent="WIyWlLk6GJQsqaUBKTNV-1">
          <mxGeometry x="170" y="170" width="100" height="100" as="geometry" />
        </mxCell>
        <mxCell id="Ss6W5KTS9dLa1oaQqJZ9-36" style="edgeStyle=orthogonalEdgeStyle;rounded=0;orthogonalLoop=1;jettySize=auto;html=1;exitX=0.5;exitY=1;exitDx=0;exitDy=0;entryX=0;entryY=0.5;entryDx=0;entryDy=0;" edge="1" parent="WIyWlLk6GJQsqaUBKTNV-1" source="Ss6W5KTS9dLa1oaQqJZ9-34" target="Ss6W5KTS9dLa1oaQqJZ9-46">
          <mxGeometry relative="1" as="geometry">
            <mxPoint x="160" y="370" as="targetPoint" />
          </mxGeometry>
        </mxCell>
        <mxCell id="Ss6W5KTS9dLa1oaQqJZ9-34" value="New bloc with the element value" style="ellipse;whiteSpace=wrap;html=1;aspect=fixed;" vertex="1" parent="WIyWlLk6GJQsqaUBKTNV-1">
          <mxGeometry x="354" y="510" width="120" height="120" as="geometry" />
        </mxCell>
        <mxCell id="Ss6W5KTS9dLa1oaQqJZ9-38" value="Close&amp;nbsp;" style="text;html=1;align=center;verticalAlign=middle;resizable=0;points=[];autosize=1;strokeColor=none;fillColor=none;" vertex="1" parent="WIyWlLk6GJQsqaUBKTNV-1">
          <mxGeometry x="240" y="650" width="60" height="30" as="geometry" />
        </mxCell>
        <mxCell id="Ss6W5KTS9dLa1oaQqJZ9-46" value="Update Display recipes" style="ellipse;whiteSpace=wrap;html=1;" vertex="1" parent="WIyWlLk6GJQsqaUBKTNV-1">
          <mxGeometry x="160" y="310" width="120" height="80" as="geometry" />
        </mxCell>
        <mxCell id="Ss6W5KTS9dLa1oaQqJZ9-49" value="Yes" style="text;html=1;align=center;verticalAlign=middle;resizable=0;points=[];autosize=1;strokeColor=none;fillColor=none;" vertex="1" parent="WIyWlLk6GJQsqaUBKTNV-1">
          <mxGeometry x="230" y="280" width="40" height="30" as="geometry" />
        </mxCell>
        <mxCell id="Ss6W5KTS9dLa1oaQqJZ9-53" style="edgeStyle=orthogonalEdgeStyle;rounded=0;orthogonalLoop=1;jettySize=auto;html=1;exitX=0.5;exitY=1;exitDx=0;exitDy=0;" edge="1" parent="WIyWlLk6GJQsqaUBKTNV-1" source="Ss6W5KTS9dLa1oaQqJZ9-52" target="Ss6W5KTS9dLa1oaQqJZ9-54">
          <mxGeometry relative="1" as="geometry">
            <mxPoint x="590" y="440" as="targetPoint" />
          </mxGeometry>
        </mxCell>
        <mxCell id="Ss6W5KTS9dLa1oaQqJZ9-52" value="Search bar filter" style="whiteSpace=wrap;html=1;aspect=fixed;" vertex="1" parent="WIyWlLk6GJQsqaUBKTNV-1">
          <mxGeometry x="540" y="290" width="100" height="100" as="geometry" />
        </mxCell>
        <mxCell id="Ss6W5KTS9dLa1oaQqJZ9-55" style="edgeStyle=orthogonalEdgeStyle;rounded=0;orthogonalLoop=1;jettySize=auto;html=1;exitX=0;exitY=0.5;exitDx=0;exitDy=0;entryX=1;entryY=0.5;entryDx=0;entryDy=0;" edge="1" parent="WIyWlLk6GJQsqaUBKTNV-1" source="Ss6W5KTS9dLa1oaQqJZ9-54" target="Ss6W5KTS9dLa1oaQqJZ9-25">
          <mxGeometry relative="1" as="geometry" />
        </mxCell>
        <mxCell id="Ss6W5KTS9dLa1oaQqJZ9-54" value="Update list elements" style="ellipse;whiteSpace=wrap;html=1;" vertex="1" parent="WIyWlLk6GJQsqaUBKTNV-1">
          <mxGeometry x="530" y="420" width="120" height="80" as="geometry" />
        </mxCell>
        <mxCell id="Ss6W5KTS9dLa1oaQqJZ9-58" style="edgeStyle=orthogonalEdgeStyle;rounded=0;orthogonalLoop=1;jettySize=auto;html=1;exitX=0.5;exitY=1;exitDx=0;exitDy=0;entryX=0.5;entryY=0;entryDx=0;entryDy=0;" edge="1" parent="WIyWlLk6GJQsqaUBKTNV-1" source="Ss6W5KTS9dLa1oaQqJZ9-57" target="Ss6W5KTS9dLa1oaQqJZ9-29">
          <mxGeometry relative="1" as="geometry" />
        </mxCell>
        <mxCell id="Ss6W5KTS9dLa1oaQqJZ9-57" value="Single Page Recipes" style="shape=process;whiteSpace=wrap;html=1;backgroundOutline=1;" vertex="1" parent="WIyWlLk6GJQsqaUBKTNV-1">
          <mxGeometry x="160" y="50" width="120" height="60" as="geometry" />
        </mxCell>
      </root>
    </mxGraphModel>
  </diagram>
</mxfile>
